TITLE ""
FILE "1Q_t_0620-0628.mp3" MP3
  TRACK 01 AUDIO
    TITLE "1Q_t_0620-0628_01"
    INDEX 01 00:00:00
  TRACK 02 AUDIO
    TITLE "1Q_t_0620-0628_02"
    INDEX 01 00:01:12
  TRACK 03 AUDIO
    TITLE "1Q_t_0620-0628_03"
    INDEX 01 00:01:22
  TRACK 04 AUDIO
    TITLE "1Q_t_0620-0628_04"
    INDEX 01 00:04:18
  TRACK 05 AUDIO
    TITLE "1Q_t_0620-0628_05"
    INDEX 01 00:04:26
  TRACK 06 AUDIO
    TITLE "1Q_t_0620-0628_06"
    INDEX 01 00:08:53
  TRACK 07 AUDIO
    TITLE "1Q_t_0620-0628_07"
    INDEX 01 00:09:25
  TRACK 08 AUDIO
    TITLE "1Q_t_0620-0628_08"
    INDEX 01 00:10:46
  TRACK 09 AUDIO
    TITLE "1Q_t_0620-0628_09"
    INDEX 01 00:10:52
  TRACK 10 AUDIO
    TITLE "1Q_t_0620-0628_10"
    INDEX 01 00:12:08
  TRACK 11 AUDIO
    TITLE "1Q_t_0620-0628_11"
    INDEX 01 00:12:15
  TRACK 12 AUDIO
    TITLE "1Q_t_0620-0628_12"
    INDEX 01 00:17:28
  TRACK 13 AUDIO
    TITLE "1Q_t_0620-0628_13"
    INDEX 01 00:17:73
  TRACK 14 AUDIO
    TITLE "1Q_t_0620-0628_14"
    INDEX 01 00:19:08
  TRACK 15 AUDIO
    TITLE "1Q_t_0620-0628_15"
    INDEX 01 00:19:15
  TRACK 16 AUDIO
    TITLE "1Q_t_0620-0628_16"
    INDEX 01 00:20:60
  TRACK 17 AUDIO
    TITLE "1Q_t_0620-0628_17"
    INDEX 01 00:20:66
  TRACK 18 AUDIO
    TITLE "1Q_t_0620-0628_18"
    INDEX 01 00:26:29
  TRACK 19 AUDIO
    TITLE "1Q_t_0620-0628_19"
    INDEX 01 00:26:74
  TRACK 20 AUDIO
    TITLE "1Q_t_0620-0628_20"
    INDEX 01 00:28:30
  TRACK 21 AUDIO
    TITLE "1Q_t_0620-0628_21"
    INDEX 01 00:28:38
  TRACK 22 AUDIO
    TITLE "1Q_t_0620-0628_22"
    INDEX 01 00:31:46
  TRACK 23 AUDIO
    TITLE "1Q_t_0620-0628_23"
    INDEX 01 00:31:52
  TRACK 24 AUDIO
    TITLE "1Q_t_0620-0628_24"
    INDEX 01 00:36:08
  TRACK 25 AUDIO
    TITLE "1Q_t_0620-0628_25"
    INDEX 01 00:36:55
  TRACK 26 AUDIO
    TITLE "1Q_t_0620-0628_26"
    INDEX 01 00:37:68
  TRACK 27 AUDIO
    TITLE "1Q_t_0620-0628_27"
    INDEX 01 00:38:01
  TRACK 28 AUDIO
    TITLE "1Q_t_0620-0628_28"
    INDEX 01 00:42:20
  TRACK 29 AUDIO
    TITLE "1Q_t_0620-0628_29"
    INDEX 01 00:42:30
  TRACK 30 AUDIO
    TITLE "1Q_t_0620-0628_30"
    INDEX 01 00:46:38
  TRACK 31 AUDIO
    TITLE "1Q_t_0620-0628_31"
    INDEX 01 00:47:08
  TRACK 32 AUDIO
    TITLE "1Q_t_0620-0628_32"
    INDEX 01 00:48:33
  TRACK 33 AUDIO
    TITLE "1Q_t_0620-0628_33"
    INDEX 01 00:48:39
  TRACK 34 AUDIO
    TITLE "1Q_t_0620-0628_34"
    INDEX 01 00:51:12
  TRACK 35 AUDIO
    TITLE "1Q_t_0620-0628_35"
    INDEX 01 00:51:17
  TRACK 36 AUDIO
    TITLE "1Q_t_0620-0628_36"
    INDEX 01 00:55:56
  TRACK 37 AUDIO
    TITLE "1Q_t_0620-0628_37"
    INDEX 01 00:56:28
  TRACK 38 AUDIO
    TITLE "1Q_t_0620-0628_38"
    INDEX 01 00:57:46
  TRACK 39 AUDIO
    TITLE "1Q_t_0620-0628_39"
    INDEX 01 00:57:55
  TRACK 40 AUDIO
    TITLE "1Q_t_0620-0628_40"
    INDEX 01 01:00:26
  TRACK 41 AUDIO
    TITLE "1Q_t_0620-0628_41"
    INDEX 01 01:00:34
  TRACK 42 AUDIO
    TITLE "1Q_t_0620-0628_42"
    INDEX 01 01:07:22
  TRACK 43 AUDIO
    TITLE "1Q_t_0620-0628_43"
    INDEX 01 01:07:73
  TRACK 44 AUDIO
    TITLE "1Q_t_0620-0628_44"
    INDEX 01 01:09:23
  TRACK 45 AUDIO
    TITLE "1Q_t_0620-0628_45"
    INDEX 01 01:09:33
  TRACK 46 AUDIO
    TITLE "1Q_t_0620-0628_46"
    INDEX 01 01:12:51
  TRACK 47 AUDIO
    TITLE "1Q_t_0620-0628_47"
    INDEX 01 01:12:57
  TRACK 48 AUDIO
    TITLE "1Q_t_0620-0628_48"
    INDEX 01 01:18:38
  TRACK 49 AUDIO
    TITLE "1Q_t_0620-0628_49"
    INDEX 01 01:19:10
  TRACK 50 AUDIO
    TITLE "1Q_t_0620-0628_50"
    INDEX 01 01:20:15
  TRACK 51 AUDIO
    TITLE "1Q_t_0620-0628_51"
    INDEX 01 01:20:58
  TRACK 52 AUDIO
    TITLE "1Q_t_0620-0628_52"
    INDEX 01 01:22:06
  TRACK 53 AUDIO
    TITLE "1Q_t_0620-0628_53"
    INDEX 01 01:22:14
  TRACK 54 AUDIO
    TITLE "1Q_t_0620-0628_54"
    INDEX 01 01:24:13
  TRACK 55 AUDIO
    TITLE "1Q_t_0620-0628_55"
    INDEX 01 01:24:21
  TRACK 56 AUDIO
    TITLE "1Q_t_0620-0628_56"
    INDEX 01 01:30:49
